# xmcd
#
# Track frame offsets:
#       150
#       15630
#       31443
#       40346
#       53533
#       71569
#       86824
#       97397
#       116729
#       132788
#       143341
#       159761
#       172042
#
# Disc length: 2514 seconds
#
# Revision: 0
# Processed by: cddbd v1.5.2PL0 Copyright (c) Steve Scherf et al.
# Submitted via: WaveLab 4.01
#
DISCID=aa09d00d
DTITLE=Bluegrass Breakdown - Follow the Stars
DYEAR=2008
DGENRE=Bluegrass
TTITLE0=Fascination Expired
TTITLE1=Fading Away
TTITLE2=Custer´s Last Dream
TTITLE3=Follow The Stars
TTITLE4=Alla Turca
TTITLE5=Crying On My Pillow
TTITLE6=I´m Sorry
TTITLE7=Follow The Call Of Your Heart
TTITLE8=Rondo Mundial
TTITLE9=Oh No
TTITLE10=Just A Bad Habit
TTITLE11=Straight And Narrow
TTITLE12=Back On The Road
EXTD=
EXTT0=
EXTT1=
EXTT2=
EXTT3=
EXTT4=
EXTT5=
EXTT6=
EXTT7=
EXTT8=
EXTT9=
EXTT10=
EXTT11=
EXTT12=
PLAYORDER=
